<?xml version="1.0" encoding="utf-8"?>
<!-- Generator: Adobe Illustrator 23.1.0, SVG Export Plug-In . SVG Version: 6.00 Build 0)  -->
<svg version="1.1" id="Ebene_1" xmlns="http://www.w3.org/2000/svg" xmlns:xlink="http://www.w3.org/1999/xlink" x="0px" y="0px"
	 viewBox="0 0 28.6 25.4" style="enable-background:new 0 0 28.6 25.4;" xml:space="preserve">
<g>
	<path d="M14.3,25.4c-0.2,0-0.4-0.1-0.6-0.2C13.2,24.8,2.1,15.9,0.3,9.6c-0.7-2.3-0.2-4.6,1.3-6.5c1.6-2,4.1-3.2,6.8-3
		c3,0.1,4.9,2.2,6,3.8c1-1.5,3-3.6,6-3.8c2.6-0.1,5.2,1,6.8,3c1.5,1.9,1.9,4.2,1.3,6.5c-1.8,6.4-12.9,15.2-13.4,15.6
		C14.8,25.3,14.5,25.4,14.3,25.4z"/>
</g>
</svg>
